ffmpeg version 2.8.11-0ubuntu0.16.04.1 Copyright (c) 2000-2017 the FFmpeg developers
  built with gcc 5.4.0 (Ubuntu 5.4.0-6ubuntu1~16.04.4) 20160609
  configuration: --prefix=/usr --extra-version=0ubuntu0.16.04.1 --build-suffix=-ffmpeg --toolchain=hardened --libdir=/usr/lib/x86_64-linux-gnu --incdir=/usr/include/x86_64-linux-gnu --cc=cc --cxx=g++ --enable-gpl --enable-shared --disable-stripping --disable-decoder=libopenjpeg --disable-decoder=libschroedinger --enable-avresample --enable-avisynth --enable-gnutls --enable-ladspa --enable-libass --enable-libbluray --enable-libbs2b --enable-libcaca --enable-libcdio --enable-libflite --enable-libfontconfig --enable-libfreetype --enable-libfribidi --enable-libgme --enable-libgsm --enable-libmodplug --enable-libmp3lame --enable-libopenjpeg --enable-libopus --enable-libpulse --enable-librtmp --enable-libschroedinger --enable-libshine --enable-libsnappy --enable-libsoxr --enable-libspeex --enable-libssh --enable-libtheora --enable-libtwolame --enable-libvorbis --enable-libvpx --enable-libwavpack --enable-libwebp --enable-libx265 --enable-libxvid --enable-libzvbi --enable-openal --enable-opengl --enable-x11grab --enable-libdc1394 --enable-libiec61883 --enable-libzmq --enable-frei0r --enable-libx264 --enable-libopencv
  libavutil      54. 31.100 / 54. 31.100
  libavcodec     56. 60.100 / 56. 60.100
  libavformat    56. 40.101 / 56. 40.101
  libavdevice    56.  4.100 / 56.  4.100
  libavfilter     5. 40.101 /  5. 40.101
  libavresample   2.  1.  0 /  2.  1.  0
  libswscale      3.  1.101 /  3.  1.101
  libswresample   1.  2.101 /  1.  2.101
  libpostproc    53.  3.100 / 53.  3.100
[mp3 @ 0x25778c0] Unknown attached picture mimetype: ('image/png', None), skipping.
[mp3 @ 0x25778c0] Skipping 0 bytes of junk at 17522.
Input #0, mp3, from 'adam-mickiewicz-sonety-krymskie-cisza-morska.mp3':
  Metadata:
    title           : Adam Mickiewicz, Sonety krymskie, Cisza morska
    artist          : Jan Dravnel
    album           : Wolne Lektury
    encoder         : Lavf53.21.0
    genre           : Speech
    originator_reference: cWi4pdqwHBfaaaGk
    date            : 2008-10-16
    performer       : Sebastian Buttny
    album_artist    : Fundacja Nowoczesna Polska
    time_reference  : 752459577
    copyright       : 2008 Fundacja Nowoczesna Polska. Licensed to the public under http://creativecommons.org/licenses/by-sa/3.0/deed.pl verify at http://wolnelektury.pl/katalog/lektura/sonety-krymskie-cisza-morska/
    creation_time   : 0009-57-48
    encoded_by      : Pro Tools
    publisher       : Fundacja Nowoczesna Polska
  Duration: 00:01:24.90, start: 0.000000, bitrate: 65 kb/s
    Stream #0:0: Audio: mp3, 44100 Hz, mono, s16p, 64 kb/s
Output #0, null, to 'pipe:':
  Metadata:
    title           : Adam Mickiewicz, Sonety krymskie, Cisza morska
    artist          : Jan Dravnel
    album           : Wolne Lektury
    publisher       : Fundacja Nowoczesna Polska
    genre           : Speech
    originator_reference: cWi4pdqwHBfaaaGk
    date            : 2008-10-16
    performer       : Sebastian Buttny
    album_artist    : Fundacja Nowoczesna Polska
    time_reference  : 752459577
    copyright       : 2008 Fundacja Nowoczesna Polska. Licensed to the public under http://creativecommons.org/licenses/by-sa/3.0/deed.pl verify at http://wolnelektury.pl/katalog/lektura/sonety-krymskie-cisza-morska/
    encoded_by      : Pro Tools
    encoder         : Lavf56.40.101
    Stream #0:0: Audio: pcm_s16le, 44100 Hz, mono, s16, 705 kb/s
    Metadata:
      encoder         : Lavc56.60.100 pcm_s16le
Stream mapping:
  Stream #0:0 -> #0:0 (mp3 (native) -> pcm_s16le (native))
Press [q] to stop, [?] for help
[silencedetect @ 0x258a820] silence_start: -0.00367347
[silencedetect @ 0x258a820] silence_end: 0.522449 | silence_duration: 0.526122
[silencedetect @ 0x258a820] silence_start: 1.66816
[silencedetect @ 0x258a820] silence_end: 2.48163 | silence_duration: 0.813469
[silencedetect @ 0x258a820] silence_start: 3.52286
[silencedetect @ 0x258a820] silence_end: 5.48571 | silence_duration: 1.96286
[silencedetect @ 0x258a820] silence_start: 8.59061
[silencedetect @ 0x258a820] silence_end: 12.1992 | silence_duration: 3.60857
[silencedetect @ 0x258a820] silence_start: 15.069
[silencedetect @ 0x258a820] silence_end: 16.2743 | silence_duration: 1.20531
[silencedetect @ 0x258a820] silence_start: 18.7261
[silencedetect @ 0x258a820] silence_end: 20.0359 | silence_duration: 1.3098
[silencedetect @ 0x258a820] silence_start: 22.6184
[silencedetect @ 0x258a820] silence_end: 23.5624 | silence_duration: 0.944082
[silencedetect @ 0x258a820] silence_start: 24.3947
[silencedetect @ 0x258a820] silence_end: 25.4955 | silence_duration: 1.10082
[silencedetect @ 0x258a820] silence_start: 26.6151
[silencedetect @ 0x258a820] silence_end: 27.6898 | silence_duration: 1.07469
[silencedetect @ 0x258a820] silence_start: 28.9661
[silencedetect @ 0x258a820] silence_end: 30.6939 | silence_duration: 1.72776
[silencedetect @ 0x258a820] silence_start: 33.7204
[silencedetect @ 0x258a820] silence_end: 34.5339 | silence_duration: 0.813469
[silencedetect @ 0x258a820] silence_start: 36.3065
[silencedetect @ 0x258a820] silence_end: 37.9037 | silence_duration: 1.59714
[silencedetect @ 0x258a820] silence_start: 40.4078
[silencedetect @ 0x258a820] silence_end: 41.6392 | silence_duration: 1.23143
[silencedetect @ 0x258a820] silence_start: 43.6208
[silencedetect @ 0x258a820] silence_end: 44.9045 | silence_duration: 1.28367
[silencedetect @ 0x258a820] silence_start: 45.9457
[silencedetect @ 0x258a820] silence_end: 47.2555 | silence_duration: 1.3098
[silencedetect @ 0x258a820] silence_start: 48.9498
[silencedetect @ 0x258a820] silence_end: 51.7224 | silence_duration: 2.77265
[silencedetect @ 0x258a820] silence_start: 52.2151
[silencedetect @ 0x258a820] silence_end: 54.7788 | silence_duration: 2.56367
[silencedetect @ 0x258a820] silence_start: 57.0216
[silencedetect @ 0x258a820] silence_end: 58.0441 | silence_duration: 1.02245
[silencedetect @ 0x258a820] silence_start: 58.8763
[silencedetect @ 0x258a820] silence_end: 59.742 | silence_duration: 0.865714
[silencedetect @ 0x258a820] silence_start: 60.6265
[silencedetect @ 0x258a820] silence_end: 61.3355 | silence_duration: 0.70898
[silencedetect @ 0x258a820] silence_start: 62.429
[silencedetect @ 0x258a820] silence_end: 64.0784 | silence_duration: 1.64939
[silencedetect @ 0x258a820] silence_start: 66.2167
[silencedetect @ 0x258a820] silence_end: 68.1273 | silence_duration: 1.91061
[silencedetect @ 0x258a820] silence_start: 68.7245
[silencedetect @ 0x258a820] silence_end: 70.4784 | silence_duration: 1.75388
[silencedetect @ 0x258a820] silence_start: 72.6429
[silencedetect @ 0x258a820] silence_end: 73.7437 | silence_duration: 1.10082
[silencedetect @ 0x258a820] silence_start: 77.1359
[silencedetect @ 0x258a820] silence_end: 78.498 | silence_duration: 1.36204
[silencedetect @ 0x258a820] silence_start: 80.0355
[silencedetect @ 0x258a820] silence_end: 81.0057 | silence_duration: 0.970204
[silencedetect @ 0x258a820] silence_start: 82.491
size=N/A time=00:01:24.89 bitrate=N/A    
video:0kB audio:7312kB subtitle:0kB other streams:0kB global headers:0kB muxing overhead: unknown
